<svg width="89" height="90" viewBox="0 0 89 90" fill="none" xmlns="http://www.w3.org/2000/svg">
<path d="M70.9384 27.7907L74.8334 31.8962L70.809 35.8971L70.9384 27.7907Z" fill="#2DA24D"/>
<rect x="29.5682" y="14.5152" width="20.5276" height="20.5276" transform="rotate(-45 29.5682 14.5152)" fill="#E33F2C"/>
<rect y="45.6004" width="35.3953" height="7.11587" transform="rotate(-45 0 45.6004)" fill="#F0B502"/>
<rect x="39.8844" y="45.4502" width="32.5366" height="7.11587" transform="rotate(-45 39.8844 45.4502)" fill="#F0B502"/>
<rect x="37.4633" y="83.1147" width="62.6505" height="9.73724" transform="rotate(-45 37.4633 83.1147)" fill="#3C7DEB"/>
<rect x="44.247" y="62.4533" width="43.2428" height="9.82015" transform="rotate(-45 44.247 62.4533)" fill="#2DA24D"/>
<rect x="44.9148" y="50.4849" width="35.2506" height="7.11587" transform="rotate(-135 44.9148 50.4849)" fill="#F0B502"/>
<rect x="44.0847" y="76.498" width="38.5428" height="10.7178" transform="rotate(-135 44.0847 76.498)" fill="#2DA24D"/>
<rect x="37.4742" y="83.129" width="38.5428" height="9.3634" transform="rotate(-135 37.4742 83.129)" fill="#3C7DEB"/>
<path d="M69.5442 20.5043L69.7685 34.4619L55.5866 20.28L69.5442 20.5043Z" fill="#F0B502"/>
</svg>
