<svg width="25" height="25" viewBox="0 0 25 25" fill="none" xmlns="http://www.w3.org/2000/svg">
<path d="M1.4167 6.95386C3.55829 2.78794 7.0121 0.531925 11.6456 0.0676334C14.8846 -0.256926 17.8365 0.590512 20.4569 2.5263C21.1491 3.03768 21.1984 3.43758 20.5531 4.01611C19.7209 4.7622 18.9454 5.56902 18.1496 6.35362C17.9164 6.58356 17.7637 6.75396 17.3614 6.49449C12.7058 3.49128 7.86012 4.88324 5.57006 9.90373C5.42119 10.0284 5.28175 10.0832 5.17437 10.0078C3.86168 9.08493 2.47558 8.24949 1.4167 6.95386Z" fill="#E33F2C"/>
<path d="M5.45835 14.979C6.72027 17.7798 8.7319 19.5862 11.9202 20.1021C12.4851 20.1378 12.9896 20.1277 13.5792 20.1316C14.829 19.8715 16.0046 19.6282 17.1057 18.9616C17.3934 18.925 17.6189 18.9139 17.8095 19.061C18.9582 19.947 20.1894 20.7347 21.2007 21.8564C19.3727 23.7314 17.0726 24.5537 14.5666 24.8831C9.12485 25.5983 4.01882 22.993 1.42529 18.1604C1.40376 17.9965 1.3995 17.8791 1.46692 17.8219C2.70143 16.7746 3.89298 15.6696 5.45835 14.979Z" fill="#2DA24D"/>
<path d="M21.2656 21.8937C19.8996 20.9502 18.596 19.9747 17.2312 18.9637C18.292 18.0754 19.1375 17.0383 19.5777 15.6873C19.7521 15.152 19.6277 15.0239 19.0894 15.0292C17.2474 15.0474 15.4046 15.0127 13.5631 15.0486C12.938 15.0608 12.7068 14.8946 12.7337 14.257C12.7818 13.1204 12.767 11.9799 12.7385 10.8421C12.7256 10.3277 12.8666 10.118 13.4397 10.1216C16.9947 10.1437 20.5501 10.1448 24.1051 10.1199C24.6497 10.1161 24.852 10.3113 24.8998 10.8003C25.3091 14.9834 24.5344 18.7979 21.2656 21.8937Z" fill="#3C7DEB"/>
<path d="M5.52251 14.9215C4.18687 15.9938 2.84577 16.9954 1.45779 18.0447C-0.511816 14.3989 -0.431023 10.69 1.37074 6.92627C2.74809 7.89854 4.07693 8.9128 5.47076 9.94508C5.07883 11.5906 4.95431 13.2193 5.52251 14.9215Z" fill="#F0B502"/>
</svg>
