<svg width="24" height="24" viewBox="0 0 24 24" fill="none" xmlns="http://www.w3.org/2000/svg">
<path d="M17 2.83782C15.5291 1.98697 13.8214 1.5 12 1.5C6.47715 1.5 2 5.97715 2 11.5C2 13.0997 2.37562 14.6116 3.04346 15.9525C3.22094 16.3088 3.28001 16.7161 3.17712 17.1006L2.58151 19.3267C2.32295 20.293 3.20701 21.177 4.17335 20.9185L6.39939 20.3229C6.78393 20.22 7.19121 20.2791 7.54753 20.4565C8.88837 21.1244 10.4003 21.5 12 21.5C17.5228 21.5 22 17.0228 22 11.5C22 9.6786 21.513 7.97087 20.6622 6.5" stroke="#9DB2CE" stroke-width="1.5" stroke-linecap="round"/>
<path d="M8 12H8.009M11.991 12H12M15.991 12H16" stroke="#9DB2CE" stroke-width="1.5" stroke-linecap="round" stroke-linejoin="round"/>
</svg>
