<svg width="24" height="24" viewBox="0 0 24 24" fill="none" xmlns="http://www.w3.org/2000/svg">
<path fill-rule="evenodd" clip-rule="evenodd" d="M14.28 2.79006L20.04 6.82006C21.14 7.59006 22.01 9.25006 22.01 10.6001V17.3801C22.01 19.9301 19.94 22.0001 17.39 22.0001H6.60999C4.05999 22.0001 1.98999 19.9201 1.98999 17.3701V10.4701C1.98999 9.21006 2.77999 7.61006 3.77999 6.83006L8.78999 2.92006C10.3 1.75006 12.71 1.69006 14.28 2.79006ZM11.2502 14.9807C11.2605 14.5754 11.5922 14.25 12 14.25C12.4142 14.25 12.75 14.5858 12.75 15V18C12.75 18.3957 12.4436 18.7198 12.055 18.748C12.0369 18.7494 12.0185 18.7501 12 18.7501C11.5972 18.7501 11.262 18.4219 11.2503 18.0217" fill="white"/>
<path d="M12 15V18" stroke="#0A0B2E" stroke-width="1.5" stroke-linecap="round"/>
</svg>
